<svg width="24" height="24" viewBox="0 0 24 24" fill="none" xmlns="http://www.w3.org/2000/svg">
<g clip-path="url(#clip0_4278_64678)">
<path fill-rule="evenodd" clip-rule="evenodd" d="M9.1789 1.40238C11.3628 0.883932 13.638 0.883963 15.8219 1.40247C17.0874 0.603823 18.0793 0.233015 18.8143 0.075425C19.2179 -0.01112 19.5411 -0.0326703 19.7852 -0.0263029C19.9069 -0.0231266 20.0079 -0.0130296 20.0883 -0.000996057C20.1285 0.00501424 20.1634 0.0114873 20.193 0.0177774C20.2078 0.0209213 20.2213 0.0240164 20.2334 0.0269807L20.2507 0.0313169L20.2585 0.0333909L20.2623 0.0344009L20.2641 0.0348987C20.265 0.0351453 20.2659 0.0353915 20.0002 0.999451L20.2659 0.0353916C20.5591 0.116187 20.7995 0.325994 20.9193 0.605502C21.4681 1.88591 21.4753 3.27302 21.1252 4.53926C22.0079 5.64695 22.5002 6.98351 22.5002 8.51945C22.5002 11.4657 21.5989 13.4418 20.1013 14.7011C19.095 15.5473 17.8928 16.0047 16.7075 16.266C16.7229 16.3052 16.7378 16.3447 16.7521 16.3844C16.9575 16.9548 17.0419 17.5616 17.0002 18.1662V21.9994C17.0002 22.5517 16.5525 22.9994 16.0002 22.9994C15.4479 22.9994 15.0002 22.5517 15.0002 21.9994V18.1294C15.0002 18.1033 15.0012 18.0771 15.0033 18.051C15.0297 17.7157 14.9844 17.3786 14.8704 17.0621C14.7564 16.7456 14.5763 16.457 14.3422 16.2155C14.0766 15.9416 13.9901 15.5404 14.1191 15.1813C14.2481 14.8222 14.5702 14.5679 14.9494 14.5256C16.4632 14.3569 17.8282 13.9994 18.8141 13.1703C19.7515 12.3821 20.5002 11.0332 20.5002 8.51945C20.5002 7.29668 20.0681 6.29106 19.2759 5.45897C19.0121 5.1818 18.9295 4.77835 19.0633 4.41981C19.363 3.61683 19.4452 2.78412 19.2806 2.02125C19.2653 2.02431 19.2496 2.02754 19.2336 2.03098C18.7228 2.1405 17.8391 2.45064 16.557 3.31009C16.3165 3.47128 16.018 3.52036 15.7386 3.44463C13.6179 2.86988 11.3825 2.86988 9.26178 3.44463C8.98237 3.52036 8.68386 3.47128 8.44339 3.31009C7.15585 2.44701 6.29246 2.13771 5.80472 2.02943C5.80221 2.02887 5.79971 2.02832 5.79722 2.02778C5.60397 2.81613 5.64972 3.64981 5.93708 4.41981C6.07089 4.77835 5.98833 5.18182 5.72445 5.45899C4.93209 6.29124 4.5002 7.34805 4.5002 8.54945C4.5002 11.04 5.24694 12.3805 6.18628 13.1703C7.17578 14.0024 8.54465 14.3684 10.0635 14.5571C10.4397 14.6038 10.7571 14.8593 10.8832 15.2168C11.0094 15.5743 10.9225 15.9724 10.6588 16.2449C10.4274 16.484 10.249 16.7691 10.1351 17.0817C10.0212 17.3943 9.97439 17.7274 9.99774 18.0593C9.99938 18.0826 10.0002 18.106 10.0002 18.1294V18.9946C10.0002 18.9976 10.0002 19.0006 10.0002 19.0037V21.9994C10.0002 22.5517 9.55248 22.9994 9.0002 22.9994C8.44791 22.9994 8.0002 22.5517 8.0002 21.9994V20.2537C7.19403 20.3771 6.48459 20.3559 5.85044 20.2075C4.88567 19.9817 4.19663 19.4851 3.66809 18.9566C3.40945 18.6979 3.18663 18.429 2.99408 18.1878C2.92866 18.1058 2.86887 18.0299 2.81238 17.9582C2.69195 17.8053 2.58649 17.6714 2.47333 17.5385C2.28854 17.3216 2.14327 17.1831 2.01872 17.0954L1.60628 16.9186C1.12712 16.7132 0.8861 16.1742 1.05253 15.6802C1.21896 15.1862 1.73699 14.9029 2.24273 15.0293C2.50442 15.0947 2.73839 15.1957 2.9484 15.3179L8.01076 17.4874C8.04538 17.1159 8.12753 16.7494 8.25593 16.397C8.26997 16.3585 8.28454 16.3202 8.29964 16.2821C7.11257 16.0114 5.90721 15.5487 4.89912 14.7011C3.40346 13.4434 2.5002 11.4789 2.5002 8.54945C2.5002 7.0454 2.98439 5.66651 3.8788 4.53683C3.53757 3.23603 3.63674 1.85215 4.17107 0.605501C4.28819 0.332248 4.52081 0.125274 4.80583 0.0407336L5.0902 0.99945C4.80583 0.0407335 4.8068 0.0404471 4.80777 0.0401604L4.80974 0.0395828L4.81377 0.0384151L4.82217 0.0360331L4.84038 0.0311106C4.85314 0.0277688 4.86715 0.0243233 4.8824 0.0208555C4.91291 0.0139171 4.94834 0.00690776 4.98874 0.000464257C5.06965 -0.0124392 5.16983 -0.022966 5.28972 -0.0262656C5.53002 -0.0328795 5.8449 -0.0103413 6.23818 0.0769675C6.95285 0.235628 7.92202 0.607002 9.1789 1.40238Z" fill="#1E2B3C"/>
</g>
<defs>
<clipPath id="clip0_4278_64678">
<rect width="24" height="24" fill="white"/>
</clipPath>
</defs>
</svg>
