<svg width="48" height="48" viewBox="0 0 48 48" fill="none" xmlns="http://www.w3.org/2000/svg">
<mask id="mask0_4278_64906" style="mask-type:alpha" maskUnits="userSpaceOnUse" x="0" y="0" width="48" height="48">
<rect width="48" height="48" fill="#D9D9D9"/>
</mask>
<g mask="url(#mask0_4278_64906)">
<path d="M5.39961 38.5984C4.89961 38.5984 4.47428 38.4318 4.12361 38.0984C3.77428 37.7651 3.59961 37.3318 3.59961 36.7984V34.1484C3.59961 33.1151 3.86628 32.1984 4.39961 31.3984C4.93294 30.5984 5.64961 29.9651 6.54961 29.4984C8.44961 28.5984 10.3583 27.8904 12.2756 27.3744C14.1916 26.8571 16.2996 26.5984 18.5996 26.5984C20.8996 26.5984 23.0083 26.8571 24.9256 27.3744C26.8416 27.8904 28.7496 28.5984 30.6496 29.4984C31.5496 29.9651 32.2663 30.5984 32.7996 31.3984C33.3329 32.1984 33.5996 33.1151 33.5996 34.1484V36.7984C33.5996 37.3318 33.4249 37.7651 33.0756 38.0984C32.7249 38.4318 32.2996 38.5984 31.7996 38.5984H5.39961ZM36.7996 38.5984C37.0663 38.3984 37.2663 38.1404 37.3996 37.8244C37.5329 37.5071 37.5996 37.1651 37.5996 36.7984V33.8984C37.5996 32.5984 37.2743 31.3564 36.6236 30.1724C35.9743 28.9898 35.0663 27.9651 33.8996 27.0984C35.2329 27.2984 36.4996 27.6064 37.6996 28.0224C38.8996 28.4398 40.0496 28.9318 41.1496 29.4984C42.1829 30.0651 42.9829 30.7238 43.5496 31.4744C44.1163 32.2238 44.3996 33.0318 44.3996 33.8984V36.7984C44.3996 37.3318 44.2249 37.7651 43.8756 38.0984C43.5249 38.4318 43.0996 38.5984 42.5996 38.5984H36.7996ZM18.5996 23.3984C16.6663 23.3984 15.0163 22.7064 13.6496 21.3224C12.2829 19.9398 11.5996 18.2984 11.5996 16.3984C11.5996 14.4651 12.2829 12.8151 13.6496 11.4484C15.0163 10.0818 16.6663 9.39844 18.5996 9.39844C20.5329 9.39844 22.1829 10.0818 23.5496 11.4484C24.9163 12.8151 25.5996 14.4651 25.5996 16.3984C25.5996 18.2984 24.9163 19.9398 23.5496 21.3224C22.1829 22.7064 20.5329 23.3984 18.5996 23.3984ZM35.8496 16.3984C35.8496 18.2984 35.1663 19.9398 33.7996 21.3224C32.4329 22.7064 30.7829 23.3984 28.8496 23.3984C28.6496 23.3984 28.3743 23.3731 28.0236 23.3224C27.6743 23.2731 27.3829 23.2151 27.1496 23.1484C27.9496 22.1818 28.5583 21.1238 28.9756 19.9744C29.3916 18.8238 29.5996 17.6318 29.5996 16.3984C29.5996 15.1318 29.3829 13.9318 28.9496 12.7984C28.5163 11.6651 27.9163 10.6151 27.1496 9.64844C27.4163 9.54844 27.6996 9.48177 27.9996 9.44844C28.2996 9.4151 28.5829 9.39844 28.8496 9.39844C30.7829 9.39844 32.4329 10.0818 33.7996 11.4484C35.1663 12.8151 35.8496 14.4651 35.8496 16.3984ZM6.59961 35.5984H30.5996V34.1484C30.5996 33.7484 30.4916 33.3818 30.2756 33.0484C30.0583 32.7151 29.7329 32.4318 29.2996 32.1984C27.6329 31.3651 25.9329 30.7231 24.1996 30.2724C22.4663 29.8231 20.5996 29.5984 18.5996 29.5984C16.5996 29.5984 14.7249 29.8231 12.9756 30.2724C11.2249 30.7231 9.53294 31.3651 7.89961 32.1984C7.43294 32.4318 7.09961 32.7151 6.89961 33.0484C6.69961 33.3818 6.59961 33.7484 6.59961 34.1484V35.5984ZM18.5996 20.3984C19.6996 20.3984 20.6416 20.0064 21.4256 19.2224C22.2083 18.4398 22.5996 17.4984 22.5996 16.3984C22.5996 15.2984 22.2083 14.3564 21.4256 13.5724C20.6416 12.7898 19.6996 12.3984 18.5996 12.3984C17.4996 12.3984 16.5583 12.7898 15.7756 13.5724C14.9916 14.3564 14.5996 15.2984 14.5996 16.3984C14.5996 17.4984 14.9916 18.4398 15.7756 19.2224C16.5583 20.0064 17.4996 20.3984 18.5996 20.3984Z" fill="#1E2B3C"/>
</g>
</svg>
