<svg id="Layer_1" data-name="Layer 1" xmlns="http://www.w3.org/2000/svg" viewBox="0 0 280 70"><defs><style>.cls-1{fill:#1e2b3c;}.cls-2{fill:#0062b8;}</style></defs><path class="cls-1" d="M138.37,10.37c.14-.28.28-.35.5-.35h11.5a.33.33,0,0,1,.35.35V59.65a.33.33,0,0,1-.35.35h-6a.33.33,0,0,1-.35-.35V17.12c0-.5-.64-.43-.71-.07l-12.5,42.6a.63.63,0,0,1-.57.35h-9.65a.64.64,0,0,1-.57-.35l-12.5-42.6a.36.36,0,0,0-.71.07V59.65a.33.33,0,0,1-.35.35h-6a.33.33,0,0,1-.36-.35V10.37a.33.33,0,0,1,.36-.35h11.5c.21,0,.35.07.49.35L125,53a.37.37,0,0,0,.71,0Z"/><path class="cls-1" d="M161.09,17.89a.34.34,0,0,1-.36-.35V10.36a.34.34,0,0,1,.36-.35h7.1a.33.33,0,0,1,.35.35v7.18a.33.33,0,0,1-.35.35Zm7,41.76a.33.33,0,0,1-.36.35h-6a.33.33,0,0,1-.36-.35V24.43a.33.33,0,0,1,.36-.35h6a.33.33,0,0,1,.36.35Z"/><path class="cls-1" d="M184.24,24.08c.21,0,.28.14.35.35l.71,3.2c.07.42.64.28.78.07,1.42-2.13,4.55-4.33,9.3-4.33,10.3,0,15.48,7.52,15.48,16.75V59.65a.33.33,0,0,1-.35.35h-6a.33.33,0,0,1-.35-.35V40.12c0-5.39-2.42-10.72-9.45-10.72-6,0-9.37,5.18-9.37,10.72V59.65A.33.33,0,0,1,185,60h-6a.33.33,0,0,1-.35-.35V24.43a.33.33,0,0,1,.35-.35Z"/><path class="cls-1" d="M227.26,10a.34.34,0,0,1,.36.35V59.65a.34.34,0,0,1-.36.35h-6a.33.33,0,0,1-.36-.35V10.37a.33.33,0,0,1,.36-.35Z"/><path class="cls-1" d="M238.62,60a.33.33,0,0,1-.35-.35V10.37a.33.33,0,0,1,.35-.35h18.32c14.91.07,22.22,10.58,22.22,25.49S271.85,60,256.94,60Zm18.32-6c9.51,0,15.12-6.39,15.12-18.46,0-11.86-5.61-19.46-15.12-19.46H245.37a.34.34,0,0,0-.36.36v37.2a.34.34,0,0,0,.36.36Z"/><path class="cls-2" d="M35,70H1.4A1.4,1.4,0,0,1,0,68.6V1.4A1.4,1.4,0,0,1,1.4,0H35A35,35,0,0,1,70,35h0A35,35,0,0,1,35,70Zm0-60A25,25,0,1,0,60,35,25,25,0,0,0,35,10Z"/></svg>