<svg xmlns="http://www.w3.org/2000/svg" width="117" height="26" viewBox="0 0 117 26" fill="none">
<g clip-path="url(#clip0_607_2041)">
<g clip-path="url(#clip1_607_2041)">
<path d="M13.2997 0H0.52485C0.385651 0 0.252154 0.0553614 0.153725 0.153905C0.0552967 0.252449 0 0.386103 0 0.525465V25.4745C0 25.6139 0.0552967 25.7476 0.153725 25.8461C0.252154 25.9446 0.385651 26 0.52485 26H13.2997C16.6782 25.9038 19.8861 24.4925 22.2418 22.066C24.5975 19.6395 25.9153 16.3891 25.9153 13.0053C25.9153 9.62144 24.5975 6.37097 22.2418 3.94448C19.8861 1.51798 16.6782 0.10671 13.2997 0.0105095V0ZM14.5488 22.08C12.616 22.4131 10.6274 22.1215 8.87109 21.2476C7.11475 20.3738 5.68182 18.9629 4.77978 17.2193C3.87774 15.4758 3.55341 13.49 3.85375 11.5496C4.1541 9.60918 5.06353 7.81484 6.45036 6.42638C7.83719 5.03793 9.62943 4.12743 11.5676 3.82674C13.5057 3.52604 15.4891 3.85075 17.2307 4.75385C18.9722 5.65695 20.3814 7.09156 21.2543 8.84995C22.1271 10.6083 22.4183 12.5992 22.0857 14.5344C21.762 16.4175 20.8636 18.1541 19.514 19.5053C18.1644 20.8565 16.4298 21.7559 14.5488 22.08Z" fill="#1E2B3C"/>
</g>
<path d="M37.0244 22.0191C37.0244 22.0982 37.077 22.1509 37.1559 22.1509H45.7781C48.9063 22.1509 51.167 20.0148 51.167 16.8766C51.167 15.0306 49.9052 13.0792 48.6697 12.5781C48.5383 12.5254 48.5383 12.3671 48.6697 12.3144C49.6949 11.8924 50.7464 10.6002 50.7464 8.85974C50.7464 5.98525 48.7749 3.58545 45.9096 3.58545H37.1559C37.077 3.58545 37.0244 3.63819 37.0244 3.71731V22.0191ZM45.5941 13.7121C47.2765 13.7121 48.6697 15.3207 48.6697 16.8766C48.6697 18.4589 47.3291 19.9094 45.4101 19.9094H39.6532C39.5743 19.9094 39.5217 19.8566 39.5217 19.7775V13.8439C39.5217 13.7648 39.5743 13.7121 39.6532 13.7121H45.5941ZM48.2491 8.85974C48.2491 10.3893 46.7771 11.4178 45.4101 11.4705H39.6532C39.5743 11.4705 39.5217 11.4178 39.5217 11.3386V5.93251C39.5217 5.85339 39.5743 5.80065 39.6532 5.80065H45.4101C47.2765 5.80065 48.2491 7.27745 48.2491 8.85974Z" fill="#1E2B3C"/>
<path d="M67.0499 20.0412C67.0499 19.9621 66.9974 19.9094 66.9185 19.9094H66.1562C65.6041 19.9094 65.2887 19.4347 65.2887 19.0391V13.3165C65.2887 10.0992 63.028 8.54328 59.4003 8.54328C56.4298 8.54328 53.6171 10.0728 53.6171 13.1846C53.6171 13.2638 53.6697 13.3165 53.7485 13.3165H55.983C56.0618 13.3165 56.1144 13.2638 56.1144 13.1846C56.1144 11.8397 57.1396 10.7848 59.4003 10.7848C62.5285 10.7848 62.7914 12.2353 62.7914 13.3165C62.7914 13.6857 62.5022 14.1868 61.9239 14.1868H58.9797C55.1155 14.1868 53.1965 15.9009 53.1965 18.1952C53.1965 20.7005 54.9315 22.4146 58.454 22.4146C60.8724 22.4146 62.5022 21.5444 63.1331 20.8851C63.1857 20.8324 63.3171 20.806 63.3697 20.9378C63.764 21.7817 64.6578 22.1509 66.1562 22.1509H66.9185C66.9974 22.1509 67.0499 22.0982 67.0499 22.0191V20.0412ZM62.7914 16.6657C62.7388 18.2743 61.6347 20.1731 58.454 20.1731C56.351 20.1731 55.6938 19.1446 55.6938 18.1952C55.6938 17.2722 56.1933 16.1646 58.9797 16.1646H62.66C62.7388 16.1646 62.7914 16.2174 62.7914 16.2965V16.6657Z" fill="#1E2B3C"/>
<path d="M81.754 22.1509C81.8329 22.1509 81.8854 22.0718 81.8592 22.0191L76.7857 13.3165C76.7331 13.2374 76.7331 13.1583 76.7857 13.1055L81.6752 8.93885C81.7277 8.88611 81.6752 8.80699 81.5963 8.80699H78.3629C78.2841 8.80699 78.1264 8.80699 77.9686 8.93885L71.9225 14.1076C71.8437 14.1868 71.7385 14.134 71.7385 14.0549V3.71731C71.7385 3.63819 71.686 3.58545 71.6071 3.58545H69.3727C69.2938 3.58545 69.2412 3.63819 69.2412 3.71731V22.0191C69.2412 22.0982 69.2938 22.1509 69.3727 22.1509H71.6071C71.686 22.1509 71.7385 22.0982 71.7385 22.0191V17.5623C71.7385 17.4832 71.7385 17.4568 71.7911 17.4041L74.7879 14.8197C74.8667 14.7406 74.9193 14.7406 74.9719 14.8197L79.1516 22.0191C79.2041 22.0982 79.3093 22.1509 79.3881 22.1509H81.754Z" fill="#1E2B3C"/>
<path d="M93.6088 13.3165C93.6876 13.3165 93.7139 13.2638 93.7139 13.1846C93.7139 10.0728 91.1641 8.54328 87.9307 8.54328C84.6711 8.54328 82.5944 10.3102 82.5944 12.4726C82.5944 15.7427 85.7752 16.1382 88.2987 16.4283C89.4028 16.5602 91.5847 16.6657 91.5847 18.1688C91.5847 19.883 89.6394 20.1731 88.2987 20.1731C86.1958 20.1731 84.8551 19.0918 84.8551 17.7733C84.8551 17.6942 84.7762 17.6414 84.6974 17.6414H82.4892C82.4104 17.6414 82.3578 17.6942 82.3578 17.7733C82.3578 20.3049 84.3031 22.4146 88.2987 22.4146C91.5847 22.4146 94.082 21.1752 94.082 18.1688C94.082 14.7933 90.9275 14.556 88.2987 14.1868C86.9844 14.0022 85.0917 13.9758 85.0917 12.4726C85.0917 11.6551 85.9592 10.7848 87.9307 10.7848C90.06 10.7848 91.2166 11.7342 91.2166 13.1846C91.2166 13.2638 91.2692 13.3165 91.3481 13.3165H93.6088Z" fill="#1E2B3C"/>
<path d="M99.4891 8.93885C99.4891 8.85974 99.4366 8.80699 99.3577 8.80699H97.1233C97.0444 8.80699 96.9918 8.85974 96.9918 8.93885V22.0191C96.9918 22.0982 97.0444 22.1509 97.1233 22.1509H99.3577C99.4366 22.1509 99.4891 22.0982 99.4891 22.0191V8.93885ZM99.4891 6.60032C99.568 6.60032 99.6206 6.54758 99.6206 6.46846V3.80495C99.6206 3.72583 99.568 3.67309 99.4891 3.67309H96.8604C96.7815 3.67309 96.729 3.72583 96.729 3.80495V6.46846C96.729 6.54758 96.7815 6.60032 96.8604 6.60032H99.4891Z" fill="#1E2B3C"/>
<path d="M116.133 20.0412C116.133 19.9621 116.081 19.9094 116.002 19.9094H115.24C114.688 19.9094 114.372 19.4347 114.372 19.0391V13.3165C114.372 10.0992 112.111 8.54328 108.484 8.54328C105.513 8.54328 102.701 10.0728 102.701 13.1846C102.701 13.2638 102.753 13.3165 102.832 13.3165H105.066C105.145 13.3165 105.198 13.2638 105.198 13.1846C105.198 11.8397 106.223 10.7848 108.484 10.7848C111.612 10.7848 111.875 12.2353 111.875 13.3165C111.875 13.6857 111.586 14.1868 111.007 14.1868H108.063C104.199 14.1868 102.28 15.9009 102.28 18.1952C102.28 20.7005 104.015 22.4146 107.537 22.4146C109.956 22.4146 111.586 21.5444 112.217 20.8851C112.269 20.8324 112.401 20.806 112.453 20.9378C112.847 21.7817 113.741 22.1509 115.24 22.1509H116.002C116.081 22.1509 116.133 22.0982 116.133 22.0191V20.0412ZM111.875 16.6657C111.822 18.2743 110.718 20.1731 107.537 20.1731C105.434 20.1731 104.777 19.1446 104.777 18.1952C104.777 17.2722 105.277 16.1646 108.063 16.1646H111.743C111.822 16.1646 111.875 16.2174 111.875 16.2965V16.6657Z" fill="#1E2B3C"/>
</g>
<defs>
<clipPath id="clip0_607_2041">
<rect width="116.133" height="26" fill="white"/>
</clipPath>
<clipPath id="clip1_607_2041">
<rect width="25.9171" height="26" fill="white"/>
</clipPath>
</defs>
</svg>