<svg width="24" height="24" viewBox="0 0 24 24" fill="none" xmlns="http://www.w3.org/2000/svg">
<g clip-path="url(#clip0_3530_41028)">
<path d="M12.3159 0H0.486027C0.357124 0 0.233502 0.0511028 0.142354 0.142066C0.0512063 0.23303 0 0.356403 0 0.485044V23.515C0 23.6436 0.0512063 23.767 0.142354 23.8579C0.233502 23.9489 0.357124 24 0.486027 24H12.3159C15.4445 23.9112 18.4151 22.6085 20.5966 20.3686C22.778 18.1288 23.9984 15.1284 23.9984 12.0049C23.9984 8.88133 22.778 5.8809 20.5966 3.64106C18.4151 1.40122 15.4445 0.0985017 12.3159 0.00970111V0ZM13.4727 20.3816C11.6828 20.689 9.8413 20.4199 8.21489 19.6132C6.58847 18.8065 5.26153 17.5042 4.42622 15.8948C3.5909 14.2853 3.29056 12.4523 3.56869 10.6612C3.84682 8.87001 4.68898 7.2137 5.97322 5.93205C7.25747 4.6504 8.91714 3.80994 10.7119 3.53237C12.5067 3.25481 14.3434 3.55454 15.9561 4.38817C17.5688 5.2218 18.8738 6.54605 19.6821 8.16918C20.4904 9.79231 20.76 11.6301 20.452 13.4163C20.1522 15.1547 19.3203 16.7576 18.0705 18.0049C16.8207 19.2521 15.2145 20.0824 13.4727 20.3816" fill="#C2132C"/>
</g>
<defs>
<clipPath id="clip0_3530_41028">
<rect width="24" height="24" fill="white"/>
</clipPath>
</defs>
</svg>
