<svg width="132" height="31" viewBox="0 0 132 31" fill="none" xmlns="http://www.w3.org/2000/svg">
<path d="M15.458 0H0.610023C0.449213 0.00312341 0.29586 0.0683966 0.182128 0.182128C0.0683965 0.29586 0.00312341 0.449213 0 0.610023V29.5739C0.00312341 29.7347 0.0683965 29.8881 0.182128 30.0018C0.29586 30.1156 0.449213 30.1808 0.610023 30.184H15.458C19.4606 30.184 23.2993 28.5939 26.1296 25.7636C28.9599 22.9333 30.55 19.0946 30.55 15.092C30.55 11.0893 28.9599 7.25063 26.1296 4.42034C23.2993 1.59004 19.4606 5.9644e-08 15.458 0ZM16.9098 25.621C14.6633 26.0076 12.352 25.6692 10.3107 24.6546C8.26934 23.6401 6.60387 22.0022 5.55545 19.9781C4.50702 17.9539 4.13006 15.6486 4.47914 13.396C4.82823 11.1433 5.88524 9.06021 7.49713 7.44833C9.10901 5.83644 11.1921 4.77943 13.4448 4.43034C15.6974 4.08126 18.0027 4.45822 20.0269 5.50665C22.051 6.55507 23.6889 8.22054 24.7034 10.2619C25.718 12.3032 26.0564 14.6145 25.6698 16.861C25.2935 19.0473 24.2493 21.0633 22.6807 22.6319C21.1121 24.2005 19.0961 25.2447 16.9098 25.621Z" fill="black"/>
<path d="M43.2565 26.0152V4.39217H51.1751C52.7095 4.39217 53.98 4.64556 54.9866 5.15235C55.9931 5.6521 56.7463 6.33134 57.246 7.19006C57.7458 8.04175 57.9956 9.00254 57.9956 10.0724C57.9956 10.9734 57.8302 11.7336 57.4994 12.353C57.1686 12.9653 56.7251 13.4581 56.1691 13.8311C55.6201 14.1971 55.0147 14.4646 54.3531 14.6335V14.8447C55.071 14.8799 55.7714 15.1122 56.4542 15.5415C57.1439 15.9638 57.7141 16.5657 58.1646 17.347C58.615 18.1283 58.8403 19.0785 58.8403 20.1976C58.8403 21.3027 58.5798 22.2952 58.059 23.175C57.5452 24.0478 56.7498 24.7411 55.6729 25.255C54.5959 25.7618 53.2199 26.0152 51.5446 26.0152H43.2565ZM46.519 23.2173H51.2279C52.7905 23.2173 53.9096 22.9146 54.5854 22.3093C55.2611 21.7039 55.5989 20.9473 55.5989 20.0393C55.5989 19.3565 55.4265 18.7301 55.0816 18.1599C54.7367 17.5898 54.244 17.1358 53.6035 16.7979C52.97 16.4601 52.2168 16.2911 51.344 16.2911H46.519V23.2173ZM46.519 13.7466H50.89C51.6221 13.7466 52.2802 13.6059 52.8644 13.3243C53.4557 13.0428 53.9237 12.6486 54.2686 12.1418C54.6206 11.628 54.7965 11.0227 54.7965 10.3258C54.7965 9.4319 54.4833 8.68228 53.8569 8.07694C53.2304 7.47161 52.2696 7.16895 50.9745 7.16895H46.519V13.7466Z" fill="black"/>
<path d="M67.1759 26.3741C66.1482 26.3741 65.2191 26.1841 64.3886 25.804C63.558 25.4169 62.8999 24.8573 62.4142 24.1253C61.9356 23.3932 61.6962 22.4958 61.6962 21.4329C61.6962 20.5179 61.8722 19.7648 62.2242 19.1735C62.5761 18.5823 63.0512 18.1142 63.6495 17.7693C64.2478 17.4244 64.9165 17.1639 65.6555 16.988C66.3946 16.812 67.1477 16.6783 67.915 16.5868C68.8863 16.4742 69.6747 16.3827 70.28 16.3123C70.8853 16.2348 71.3252 16.1117 71.5997 15.9427C71.8743 15.7738 72.0115 15.4993 72.0115 15.1192V15.0453C72.0115 14.1232 71.7511 13.4088 71.2302 12.902C70.7164 12.3952 69.9492 12.1418 68.9285 12.1418C67.8657 12.1418 67.0281 12.3776 66.4157 12.8492C65.8104 13.3138 65.3916 13.8311 65.1593 14.4012L62.1925 13.7255C62.5444 12.7401 63.0582 11.9447 63.734 11.3394C64.4167 10.727 65.2015 10.2836 66.0884 10.0091C66.9753 9.72753 67.9079 9.58675 68.8863 9.58675C69.5339 9.58675 70.2202 9.66418 70.9451 9.81903C71.6772 9.96684 72.3599 10.2414 72.9934 10.6426C73.6339 11.0438 74.1583 11.6174 74.5666 12.3635C74.9748 13.1026 75.1789 14.0634 75.1789 15.2459V26.0152H72.096V23.798H71.9693C71.7652 24.2062 71.459 24.6074 71.0507 25.0016C70.6425 25.3957 70.1181 25.723 69.4776 25.9835C68.837 26.2439 68.0698 26.3741 67.1759 26.3741ZM67.8622 23.8402C68.735 23.8402 69.4811 23.6677 70.1005 23.3228C70.7269 22.9779 71.2021 22.5275 71.5258 21.9714C71.8567 21.4083 72.0221 20.8065 72.0221 20.166V18.0755C71.9095 18.1881 71.6912 18.2937 71.3675 18.3922C71.0507 18.4837 70.6882 18.5647 70.28 18.635C69.8717 18.6984 69.474 18.7582 69.0869 18.8145C68.6998 18.8638 68.376 18.906 68.1156 18.9412C67.5032 19.0187 66.9436 19.1489 66.4368 19.3319C65.9371 19.5149 65.5359 19.7788 65.2332 20.1237C64.9376 20.4616 64.7898 20.9121 64.7898 21.4752C64.7898 22.2565 65.0784 22.8477 65.6555 23.2489C66.2327 23.6431 66.9683 23.8402 67.8622 23.8402Z" fill="black"/>
<path d="M82.2872 20.5144L82.2661 16.6607H82.8151L89.2766 9.79791H93.0564L85.6869 17.6109H85.1907L82.2872 20.5144ZM79.3837 26.0152V4.39217H82.5406V26.0152H79.3837ZM89.6251 26.0152L83.8181 18.3077L85.9931 16.1011L93.4999 26.0152H89.6251Z" fill="black"/>
<path d="M108.086 13.7572L105.225 14.264C105.105 13.898 104.915 13.5496 104.655 13.2187C104.401 12.8879 104.056 12.6169 103.62 12.4058C103.183 12.1946 102.638 12.089 101.983 12.089C101.089 12.089 100.343 12.2896 99.745 12.6908C99.1467 13.085 98.8476 13.5953 98.8476 14.2218C98.8476 14.7637 99.0482 15.2001 99.4494 15.531C99.8506 15.8618 100.498 16.1328 101.392 16.3439L103.968 16.9352C105.46 17.2801 106.573 17.8115 107.305 18.5295C108.037 19.2474 108.403 20.18 108.403 21.3274C108.403 22.2987 108.121 23.1645 107.558 23.9247C107.002 24.6778 106.224 25.269 105.225 25.6984C104.232 26.1278 103.081 26.3425 101.772 26.3425C99.9562 26.3425 98.4745 25.9553 97.3272 25.1811C96.1799 24.3998 95.476 23.2912 95.2156 21.8553L98.2669 21.3907C98.4569 22.1861 98.8476 22.7879 99.4388 23.1961C100.03 23.5973 100.801 23.798 101.751 23.798C102.786 23.798 103.613 23.5833 104.232 23.1539C104.852 22.7175 105.161 22.1861 105.161 21.5596C105.161 21.0528 104.971 20.627 104.591 20.2821C104.218 19.9372 103.644 19.6768 102.87 19.5008L100.125 18.899C98.6118 18.5541 97.4926 18.0051 96.7676 17.2519C96.0497 16.4988 95.6907 15.545 95.6907 14.3907C95.6907 13.4334 95.9582 12.5958 96.4931 11.8779C97.028 11.1599 97.7671 10.6003 98.7103 10.1991C99.6535 9.79088 100.734 9.58675 101.952 9.58675C103.704 9.58675 105.084 9.96684 106.09 10.727C107.097 11.4802 107.762 12.4902 108.086 13.7572Z" fill="black"/>
<path d="M111.874 26.0152V9.79791H115.03V26.0152H111.874ZM113.468 7.29565C112.919 7.29565 112.447 7.11264 112.053 6.74662C111.666 6.37357 111.472 5.93013 111.472 5.4163C111.472 4.89544 111.666 4.452 112.053 4.08598C112.447 3.71293 112.919 3.5264 113.468 3.5264C114.017 3.5264 114.485 3.71293 114.872 4.08598C115.266 4.452 115.463 4.89544 115.463 5.4163C115.463 5.93013 115.266 6.37357 114.872 6.74662C114.485 7.11264 114.017 7.29565 113.468 7.29565Z" fill="black"/>
<path d="M123.997 26.3741C122.969 26.3741 122.04 26.1841 121.21 25.804C120.379 25.4169 119.721 24.8573 119.235 24.1253C118.757 23.3932 118.517 22.4958 118.517 21.4329C118.517 20.5179 118.693 19.7648 119.045 19.1735C119.397 18.5823 119.872 18.1142 120.471 17.7693C121.069 17.4244 121.738 17.1639 122.477 16.988C123.216 16.812 123.969 16.6783 124.736 16.5868C125.707 16.4742 126.496 16.3827 127.101 16.3123C127.706 16.2348 128.146 16.1117 128.421 15.9427C128.695 15.7738 128.833 15.4993 128.833 15.1192V15.0453C128.833 14.1232 128.572 13.4088 128.051 12.902C127.537 12.3952 126.77 12.1418 125.75 12.1418C124.687 12.1418 123.849 12.3776 123.237 12.8492C122.631 13.3138 122.213 13.8311 121.98 14.4012L119.014 13.7255C119.365 12.7401 119.879 11.9447 120.555 11.3394C121.238 10.727 122.023 10.2836 122.909 10.0091C123.796 9.72753 124.729 9.58675 125.707 9.58675C126.355 9.58675 127.041 9.66418 127.766 9.81903C128.498 9.96684 129.181 10.2414 129.814 10.6426C130.455 11.0438 130.979 11.6174 131.388 12.3635C131.796 13.1026 132 14.0634 132 15.2459V26.0152H128.917V23.798H128.79C128.586 24.2062 128.28 24.6074 127.872 25.0016C127.464 25.3957 126.939 25.723 126.299 25.9835C125.658 26.2439 124.891 26.3741 123.997 26.3741ZM124.683 23.8402C125.556 23.8402 126.302 23.6677 126.922 23.3228C127.548 22.9779 128.023 22.5275 128.347 21.9714C128.678 21.4083 128.843 20.8065 128.843 20.166V18.0755C128.731 18.1881 128.512 18.2937 128.189 18.3922C127.872 18.4837 127.509 18.5647 127.101 18.635C126.693 18.6984 126.295 18.7582 125.908 18.8145C125.521 18.8638 125.197 18.906 124.937 18.9412C124.324 19.0187 123.765 19.1489 123.258 19.3319C122.758 19.5149 122.357 19.7788 122.054 20.1237C121.759 20.4616 121.611 20.9121 121.611 21.4752C121.611 22.2565 121.899 22.8477 122.477 23.2489C123.054 23.6431 123.789 23.8402 124.683 23.8402Z" fill="black"/>
</svg>
